<svg width="41" height="32" viewBox="0 0 41 32" fill="none" xmlns="http://www.w3.org/2000/svg">
<path fill-rule="evenodd" clip-rule="evenodd" d="M12.7221 0H27.9887C35.0149 0 40.7108 4.47715 40.7108 10V22C40.7108 27.5228 35.0149 32 27.9887 32H12.7221C5.69589 32 0 27.5228 0 22V10C0 4.47715 5.69589 0 12.7221 0ZM30.4932 10.0313C30.4932 8.92669 29.3542 8.03126 27.9488 8.03126C26.5436 8.03126 25.4044 8.92669 25.4044 10.0313C25.4044 10.2302 25.4415 10.4224 25.5102 10.6038C25.5369 10.6737 25.5161 10.7503 25.4506 10.8018L21.3358 14.0362C21.2701 14.0878 21.1727 14.104 21.0838 14.0831C20.853 14.0291 20.6085 14 20.3554 14C20.1023 14 19.8578 14.0291 19.627 14.0831C19.5381 14.104 19.4407 14.0878 19.3751 14.0362L15.2603 10.8018C15.1947 10.7502 15.1741 10.6737 15.2006 10.6037C15.2693 10.4224 15.3063 10.2302 15.3063 10.0313C15.3063 8.92669 14.1672 8.03126 12.7619 8.03126C11.3566 8.03126 10.2175 8.92669 10.2175 10.0313C10.2175 10.6258 10.5475 11.1598 11.0715 11.5261C11.1408 11.5746 11.1744 11.6482 11.1531 11.7191L8.70299 19.8933C8.6817 19.9643 8.60948 20.0185 8.51983 20.0375C7.43656 20.267 6.63936 21.0447 6.63936 21.9687C6.63936 23.0733 7.77853 23.9687 9.18379 23.9687C10.589 23.9687 11.7282 23.0733 11.7282 21.9687C11.7282 21.3742 11.3982 20.8403 10.8742 20.4738C10.8049 20.4255 10.7713 20.3518 10.7926 20.2808L13.2426 12.1067C13.2639 12.0356 13.336 11.9815 13.4257 11.9625C13.4473 11.9579 13.4688 11.9531 13.4903 11.9481C13.5792 11.9273 13.6766 11.9435 13.7423 11.9951L17.857 15.2294C17.9226 15.281 17.9433 15.3576 17.9167 15.4275C17.8479 15.6089 17.811 15.8011 17.811 16C17.811 17.1045 18.9502 18 20.3554 18C21.7608 18 22.8998 17.1045 22.8998 16C22.8998 15.8011 22.8629 15.6089 22.794 15.4275C22.7675 15.3576 22.7881 15.281 22.8538 15.2294L26.9686 11.9951C27.0341 11.9435 27.1316 11.9273 27.2205 11.9481C27.2419 11.9531 27.2635 11.9579 27.2852 11.9625C27.3748 11.9815 27.4469 12.0356 27.4681 12.1067L29.9182 20.2808C29.9394 20.3518 29.9059 20.4255 29.8366 20.4738C29.3126 20.8403 28.9827 21.3742 28.9827 21.9687C28.9827 23.0733 30.1218 23.9687 31.5271 23.9687C32.9323 23.9687 34.0716 23.0733 34.0716 21.9687C34.0716 21.0447 33.2743 20.267 32.191 20.0375C32.1013 20.0185 32.0292 19.9643 32.0078 19.8933L29.5578 11.7191C29.5363 11.6482 29.57 11.5746 29.6394 11.5261C30.1633 11.1598 30.4932 10.6258 30.4932 10.0313Z" fill="white"/>
</svg>
